<?xml version="1.0" encoding="UTF-8" standalone="no"?>
<!DOCTYPE svg PUBLIC "-//W3C//DTD SVG 1.1//EN" "http://www.w3.org/Graphics/SVG/1.1/DTD/svg11.dtd">
<!-- 由 Microsoft Visio, SVG Export 生成 优先队列的二叉树.svg Page-1 -->
<svg xmlns="http://www.w3.org/2000/svg" xmlns:xlink="http://www.w3.org/1999/xlink" xmlns:ev="http://www.w3.org/2001/xml-events"
		xmlns:v="http://schemas.microsoft.com/visio/2003/SVGExtensions/" width="11.6929in" height="8.26772in"
		viewBox="0 0 841.89 595.276" xml:space="preserve" color-interpolation-filters="sRGB" class="st9">
	<v:documentProperties v:langID="2052" v:metric="true" v:viewMarkup="false">
		<v:userDefs>
			<v:ud v:nameU="msvNoAutoConnect" v:val="VT0(1):26"/>
		</v:userDefs>
	</v:documentProperties>

	<style type="text/css">
	<![CDATA[
		.st1 {fill:#ffffff;stroke:#000000;stroke-linecap:round;stroke-linejoin:round;stroke-width:0.75}
		.st2 {fill:#000000;font-family:宋体;font-size:1.99999em}
		.st3 {stroke:#000000;stroke-linecap:round;stroke-linejoin:round;stroke-width:0.75}
		.st4 {fill:none;stroke:#000000;stroke-linecap:round;stroke-linejoin:round;stroke-width:0.75}
		.st5 {fill:#000000;font-family:宋体;font-size:1.5em;font-weight:bold}
		.st6 {fill:#aaffaa;stroke:#008000;stroke-linecap:round;stroke-linejoin:round;stroke-width:0.75;visibility:hidden}
		.st7 {fill:none;stroke:none;stroke-linecap:round;stroke-linejoin:round;stroke-width:0.75}
		.st8 {fill:#000000;font-family:宋体;font-size:1.00001em}
		.st9 {fill:none;fill-rule:evenodd;font-size:12px;overflow:visible;stroke-linecap:square;stroke-miterlimit:3}
	]]>
	</style>

	<g v:mID="0" v:index="1" v:groupContext="foregroundPage">
		<title>页-1</title>
		<v:pageProperties v:drawingScale="0.0393701" v:pageScale="0.0393701" v:drawingUnits="24" v:shadowOffsetX="8.50394"
				v:shadowOffsetY="-8.50394"/>
		<v:layer v:name="连接线" v:index="0"/>
		<g id="shape1-1" v:mID="1" v:groupContext="shape" transform="translate(396.85,-461.197)">
			<title>工作表.1</title>
			<desc>3</desc>
			<v:textBlock v:margins="rect(4,4,4,4)" v:tabSpace="42.5197"/>
			<v:textRect cx="35.4331" cy="559.843" width="70.87" height="70.8661"/>
			<ellipse cx="35.4331" cy="559.843" rx="35.4331" ry="35.4331" class="st1"/>
			<text x="29.43" y="567.04" class="st2" v:langID="2052"><v:paragraph v:horizAlign="1"/><v:tabList/>3</text>		</g>
		<g id="shape2-4" v:mID="2" v:groupContext="shape" transform="translate(283.465,-390.331)">
			<title>工作表.2</title>
			<desc>5</desc>
			<v:textBlock v:margins="rect(4,4,4,4)" v:tabSpace="42.5197"/>
			<v:textRect cx="35.4331" cy="559.843" width="70.87" height="70.8661"/>
			<ellipse cx="35.4331" cy="559.843" rx="35.4331" ry="35.4331" class="st1"/>
			<text x="29.43" y="567.04" class="st2" v:langID="2052"><v:paragraph v:horizAlign="1"/><v:tabList/>5</text>		</g>
		<g id="shape3-7" v:mID="3" v:groupContext="shape" transform="translate(510.236,-390.331)">
			<title>工作表.3</title>
			<desc>10</desc>
			<v:textBlock v:margins="rect(4,4,4,4)" v:tabSpace="42.5197"/>
			<v:textRect cx="35.4331" cy="559.843" width="70.87" height="70.8661"/>
			<ellipse cx="35.4331" cy="559.843" rx="35.4331" ry="35.4331" class="st1"/>
			<text x="23.43" y="567.04" class="st2" v:langID="2052"><v:paragraph v:horizAlign="1"/><v:tabList/>10</text>		</g>
		<g id="shape7-10" v:mID="7" v:groupContext="shape" v:layerMember="0" transform="translate(402.236,-477.85)">
			<title>动态连接线</title>
			<path d="M0 595.28 L-53.29 628.58" class="st3"/>
		</g>
		<g id="shape8-13" v:mID="8" v:groupContext="shape" v:layerMember="0" transform="translate(462.331,-477.85)">
			<title>动态连接线.8</title>
			<path d="M0 595.28 L53.29 628.58" class="st3"/>
		</g>
		<g id="shape9-16" v:mID="9" v:groupContext="shape" transform="translate(212.598,-298.205)">
			<title>工作表.9</title>
			<desc>7</desc>
			<v:textBlock v:margins="rect(4,4,4,4)" v:tabSpace="42.5197"/>
			<v:textRect cx="35.4331" cy="559.843" width="70.87" height="70.8661"/>
			<ellipse cx="35.4331" cy="559.843" rx="35.4331" ry="35.4331" class="st1"/>
			<text x="29.43" y="567.04" class="st2" v:langID="2052"><v:paragraph v:horizAlign="1"/><v:tabList/>7</text>		</g>
		<g id="shape10-19" v:mID="10" v:groupContext="shape" transform="translate(354.331,-298.205)">
			<title>工作表.10</title>
			<desc>9</desc>
			<v:textBlock v:margins="rect(4,4,4,4)" v:tabSpace="42.5197"/>
			<v:textRect cx="35.4331" cy="559.843" width="70.87" height="70.8661"/>
			<ellipse cx="35.4331" cy="559.843" rx="35.4331" ry="35.4331" class="st1"/>
			<text x="29.43" y="567.04" class="st2" v:langID="2052"><v:paragraph v:horizAlign="1"/><v:tabList/>9</text>		</g>
		<g id="shape11-22" v:mID="11" v:groupContext="shape" transform="translate(439.37,-298.205)">
			<title>工作表.11</title>
			<desc>15</desc>
			<v:textBlock v:margins="rect(4,4,4,4)" v:tabSpace="42.5197"/>
			<v:textRect cx="35.4331" cy="559.843" width="70.87" height="70.8661"/>
			<ellipse cx="35.4331" cy="559.843" rx="35.4331" ry="35.4331" class="st1"/>
			<text x="23.43" y="567.04" class="st2" v:langID="2052"><v:paragraph v:horizAlign="1"/><v:tabList/>15</text>		</g>
		<g id="shape12-25" v:mID="12" v:groupContext="shape" transform="translate(588.189,-298.205)">
			<title>工作表.12</title>
			<desc>11</desc>
			<v:textBlock v:margins="rect(4,4,4,4)" v:tabSpace="42.5197"/>
			<v:textRect cx="35.4331" cy="559.843" width="70.87" height="70.8661"/>
			<ellipse cx="35.4331" cy="559.843" rx="35.4331" ry="35.4331" class="st1"/>
			<text x="23.43" y="567.04" class="st2" v:langID="2052"><v:paragraph v:horizAlign="1"/><v:tabList/>11</text>		</g>
		<g id="shape13-28" v:mID="13" v:groupContext="shape" transform="translate(162.992,-206.079)">
			<title>工作表.13</title>
			<desc>13</desc>
			<v:textBlock v:margins="rect(4,4,4,4)" v:tabSpace="42.5197"/>
			<v:textRect cx="35.4331" cy="559.843" width="70.87" height="70.8661"/>
			<ellipse cx="35.4331" cy="559.843" rx="35.4331" ry="35.4331" class="st1"/>
			<text x="23.43" y="567.04" class="st2" v:langID="2052"><v:paragraph v:horizAlign="1"/><v:tabList/>13</text>		</g>
		<g id="shape14-31" v:mID="14" v:groupContext="shape" transform="translate(255.118,-206.079)">
			<title>工作表.14</title>
			<desc>20</desc>
			<v:textBlock v:margins="rect(4,4,4,4)" v:tabSpace="42.5197"/>
			<v:textRect cx="35.4331" cy="559.843" width="70.87" height="70.8661"/>
			<ellipse cx="35.4331" cy="559.843" rx="35.4331" ry="35.4331" class="st1"/>
			<text x="23.43" y="567.04" class="st2" v:langID="2052"><v:paragraph v:horizAlign="1"/><v:tabList/>20</text>		</g>
		<g id="shape15-34" v:mID="15" v:groupContext="shape" transform="translate(347.244,-206.079)">
			<title>工作表.15</title>
			<desc>12</desc>
			<v:textBlock v:margins="rect(4,4,4,4)" v:tabSpace="42.5197"/>
			<v:textRect cx="35.4331" cy="559.843" width="70.87" height="70.8661"/>
			<ellipse cx="35.4331" cy="559.843" rx="35.4331" ry="35.4331" class="st1"/>
			<text x="23.43" y="567.04" class="st2" v:langID="2052"><v:paragraph v:horizAlign="1"/><v:tabList/>12</text>		</g>
		<g id="shape16-37" v:mID="16" v:groupContext="shape" v:layerMember="0" transform="translate(297.294,-397.679)">
			<title>动态连接线.16</title>
			<path d="M0 595.28 L-27.66 631.23" class="st3"/>
		</g>
		<g id="shape17-40" v:mID="17" v:groupContext="shape" v:layerMember="0" transform="translate(340.502,-397.679)">
			<title>动态连接线.17</title>
			<path d="M0 595.28 L27.66 631.23" class="st3"/>
		</g>
		<g id="shape18-43" v:mID="18" v:groupContext="shape" v:layerMember="0" transform="translate(524.065,-397.679)">
			<title>动态连接线.18</title>
			<path d="M0 595.28 L-27.66 631.23" class="st3"/>
		</g>
		<g id="shape19-46" v:mID="19" v:groupContext="shape" v:layerMember="0" transform="translate(568.557,-398.715)">
			<title>动态连接线.19</title>
			<path d="M0 595.28 L32.18 633.3" class="st3"/>
		</g>
		<g id="shape20-49" v:mID="20" v:groupContext="shape" v:layerMember="0" transform="translate(231.233,-302.44)">
			<title>动态连接线.20</title>
			<path d="M0 595.28 L-16.01 625.01" class="st3"/>
		</g>
		<g id="shape21-52" v:mID="21" v:groupContext="shape" v:layerMember="0" transform="translate(262.205,-301.466)">
			<title>动态连接线.21</title>
			<path d="M0.68 595.28 L13.5 623.06" class="st3"/>
		</g>
		<g id="shape22-55" v:mID="22" v:groupContext="shape" v:layerMember="0" transform="translate(393.307,-298.309)">
			<title>动态连接线.22</title>
			<path d="M-6.26 595.28 L-7.91 616.74" class="st3"/>
		</g>
		<g id="group136-58" transform="translate(70.8661,-85.6063)" v:mID="136" v:groupContext="group">
			<v:custProps>
				<v:cp v:nameU="subtype1" v:lbl="行" v:type="1" v:format=" 1; 2; 3; 4; 5; 6; 7; 8; 9;10" v:langID="2052"
						v:val="VT4(10)"/>
				<v:cp v:nameU="subtype2" v:lbl="列" v:type="1" v:format=" 1; 2; 3; 4; 5; 6; 7; 8; 9;10" v:langID="2052"
						v:val="VT4(10)"/>
				<v:cp v:nameU="subtype1" v:lbl="" v:prompt="" v:type="0" v:format="" v:sortKey="" v:invis="false" v:ask="false"
						v:langID="0" v:cal="0" v:val="VT4( 1)"/>
			</v:custProps>
			<v:userDefs>
				<v:ud v:nameU="subtype1" v:val="VT0(9):26"/>
				<v:ud v:nameU="subtype2" v:val="VT0(9):26"/>
				<v:ud v:nameU="visVersion" v:prompt="" v:val="VT0(15):26"/>
				<v:ud v:nameU="subtype1" v:prompt="" v:val="VT0(0):26"/>
			</v:userDefs>
			<title>网格</title>
			<g id="shape137-59" v:mID="137" v:groupContext="shape" transform="translate(0,-3.8268)">
				<title>工作表.137</title>
				<desc>3</desc>
				<v:textBlock v:margins="rect(0,0,0,0)" v:tabSpace="42.5197"/>
				<v:textRect cx="35.4331" cy="561.756" width="70.87" height="67.0393"/>
				<rect x="0" y="528.236" width="70.8661" height="67.0393" class="st4"/>
				<text x="30.9" y="567.16" class="st5" v:langID="2052"><v:paragraph v:horizAlign="1"/><v:tabList/>3</text>			</g>
			<g id="shape138-62" v:mID="138" v:groupContext="shape" transform="translate(70.8661,-3.8268)">
				<title>工作表.138</title>
				<desc>5</desc>
				<v:textBlock v:margins="rect(0,0,0,0)" v:tabSpace="42.5197"/>
				<v:textRect cx="35.4331" cy="561.756" width="70.87" height="67.0393"/>
				<rect x="0" y="528.236" width="70.8661" height="67.0393" class="st4"/>
				<text x="30.9" y="567.16" class="st5" v:langID="2052"><v:paragraph v:horizAlign="1"/><v:tabList/>5</text>			</g>
			<g id="shape139-65" v:mID="139" v:groupContext="shape" transform="translate(141.732,-3.8268)">
				<title>工作表.139</title>
				<desc>10</desc>
				<v:textBlock v:margins="rect(0,0,0,0)" v:tabSpace="42.5197"/>
				<v:textRect cx="35.4331" cy="561.756" width="70.87" height="67.0393"/>
				<rect x="0" y="528.236" width="70.8661" height="67.0393" class="st4"/>
				<text x="26.36" y="567.16" class="st5" v:langID="2052"><v:paragraph v:horizAlign="1"/><v:tabList/>10</text>			</g>
			<g id="shape140-68" v:mID="140" v:groupContext="shape" transform="translate(212.598,-3.8268)">
				<title>工作表.140</title>
				<desc>7</desc>
				<v:textBlock v:margins="rect(0,0,0,0)" v:tabSpace="42.5197"/>
				<v:textRect cx="35.4331" cy="561.756" width="70.87" height="67.0393"/>
				<rect x="0" y="528.236" width="70.8661" height="67.0393" class="st4"/>
				<text x="30.9" y="567.16" class="st5" v:langID="2052"><v:paragraph v:horizAlign="1"/><v:tabList/>7</text>			</g>
			<g id="shape141-71" v:mID="141" v:groupContext="shape" transform="translate(283.465,-3.8268)">
				<title>工作表.141</title>
				<desc>8</desc>
				<v:textBlock v:margins="rect(0,0,0,0)" v:tabSpace="42.5197"/>
				<v:textRect cx="35.4331" cy="561.756" width="70.87" height="67.0393"/>
				<rect x="0" y="528.236" width="70.8661" height="67.0393" class="st4"/>
				<text x="30.9" y="567.16" class="st5" v:langID="2052"><v:paragraph v:horizAlign="1"/><v:tabList/>8</text>			</g>
			<g id="shape142-74" v:mID="142" v:groupContext="shape" transform="translate(354.331,-3.8268)">
				<title>工作表.142</title>
				<desc>15</desc>
				<v:textBlock v:margins="rect(0,0,0,0)" v:tabSpace="42.5197"/>
				<v:textRect cx="35.4331" cy="561.756" width="70.87" height="67.0393"/>
				<rect x="0" y="528.236" width="70.8661" height="67.0393" class="st4"/>
				<text x="26.36" y="567.16" class="st5" v:langID="2052"><v:paragraph v:horizAlign="1"/><v:tabList/>15</text>			</g>
			<g id="shape143-77" v:mID="143" v:groupContext="shape" transform="translate(425.197,-3.8268)">
				<title>工作表.143</title>
				<desc>11</desc>
				<v:textBlock v:margins="rect(0,0,0,0)" v:tabSpace="42.5197"/>
				<v:textRect cx="35.4331" cy="561.756" width="70.87" height="67.0393"/>
				<rect x="0" y="528.236" width="70.8661" height="67.0393" class="st4"/>
				<text x="26.36" y="567.16" class="st5" v:langID="2052"><v:paragraph v:horizAlign="1"/><v:tabList/>11</text>			</g>
			<g id="shape144-80" v:mID="144" v:groupContext="shape" transform="translate(496.063,-3.8268)">
				<title>工作表.144</title>
				<desc>13</desc>
				<v:textBlock v:margins="rect(0,0,0,0)" v:tabSpace="42.5197"/>
				<v:textRect cx="35.4331" cy="561.756" width="70.87" height="67.0393"/>
				<rect x="0" y="528.236" width="70.8661" height="67.0393" class="st4"/>
				<text x="26.36" y="567.16" class="st5" v:langID="2052"><v:paragraph v:horizAlign="1"/><v:tabList/>13</text>			</g>
			<g id="shape145-83" v:mID="145" v:groupContext="shape" transform="translate(566.929,-3.8268)">
				<title>工作表.145</title>
				<desc>20</desc>
				<v:textBlock v:margins="rect(0,0,0,0)" v:tabSpace="42.5197"/>
				<v:textRect cx="35.4331" cy="561.756" width="70.87" height="67.0393"/>
				<rect x="0" y="528.236" width="70.8661" height="67.0393" class="st4"/>
				<text x="26.36" y="567.16" class="st5" v:langID="2052"><v:paragraph v:horizAlign="1"/><v:tabList/>20</text>			</g>
			<g id="shape146-86" v:mID="146" v:groupContext="shape" transform="translate(637.795,-3.8268)">
				<title>工作表.146</title>
				<desc>12</desc>
				<v:textBlock v:margins="rect(0,0,0,0)" v:tabSpace="42.5197"/>
				<v:textRect cx="35.4331" cy="561.756" width="70.87" height="67.0393"/>
				<rect x="0" y="528.236" width="70.8661" height="67.0393" class="st4"/>
				<text x="26.36" y="567.16" class="st5" v:langID="2052"><v:paragraph v:horizAlign="1"/><v:tabList/>12</text>			</g>
			<g id="shape147-89" v:mID="147" v:groupContext="shape" transform="translate(0,-56.6929)">
				<title>工作表.147</title>
				<rect x="0" y="588.189" width="70.8661" height="7.08661" class="st6"/>
			</g>
			<g id="shape148-91" v:mID="148" v:groupContext="shape" transform="translate(0,-49.6063)">
				<title>工作表.148</title>
				<rect x="0" y="588.189" width="70.8661" height="7.08661" class="st6"/>
			</g>
			<g id="shape149-93" v:mID="149" v:groupContext="shape" transform="translate(0,-42.5197)">
				<title>工作表.149</title>
				<rect x="0" y="588.189" width="70.8661" height="7.08661" class="st6"/>
			</g>
			<g id="shape150-95" v:mID="150" v:groupContext="shape" transform="translate(0,-35.4331)">
				<title>工作表.150</title>
				<rect x="0" y="588.189" width="70.8661" height="7.08661" class="st6"/>
			</g>
			<g id="shape151-97" v:mID="151" v:groupContext="shape" transform="translate(0,-28.3465)">
				<title>工作表.151</title>
				<rect x="0" y="588.189" width="70.8661" height="7.08661" class="st6"/>
			</g>
			<g id="shape152-99" v:mID="152" v:groupContext="shape" transform="translate(0,-21.2598)">
				<title>工作表.152</title>
				<rect x="0" y="588.189" width="70.8661" height="7.08661" class="st6"/>
			</g>
			<g id="shape153-101" v:mID="153" v:groupContext="shape" transform="translate(0,-14.1732)">
				<title>工作表.153</title>
				<rect x="0" y="588.189" width="70.8661" height="7.08661" class="st6"/>
			</g>
			<g id="shape154-103" v:mID="154" v:groupContext="shape" transform="translate(0,-7.08661)">
				<title>工作表.154</title>
				<rect x="0" y="588.189" width="70.8661" height="7.08661" class="st6"/>
			</g>
			<g id="shape155-105" v:mID="155" v:groupContext="shape">
				<title>工作表.155</title>
				<rect x="0" y="588.189" width="70.8661" height="7.08661" class="st6"/>
			</g>
			<g id="shape156-107" v:mID="156" v:groupContext="shape" transform="translate(70.8661,-56.6929)">
				<title>工作表.156</title>
				<rect x="0" y="588.189" width="70.8661" height="7.08661" class="st6"/>
			</g>
			<g id="shape157-109" v:mID="157" v:groupContext="shape" transform="translate(141.732,-56.6929)">
				<title>工作表.157</title>
				<rect x="0" y="588.189" width="70.8661" height="7.08661" class="st6"/>
			</g>
			<g id="shape158-111" v:mID="158" v:groupContext="shape" transform="translate(212.598,-56.6929)">
				<title>工作表.158</title>
				<rect x="0" y="588.189" width="70.8661" height="7.08661" class="st6"/>
			</g>
			<g id="shape159-113" v:mID="159" v:groupContext="shape" transform="translate(283.465,-56.6929)">
				<title>工作表.159</title>
				<rect x="0" y="588.189" width="70.8661" height="7.08661" class="st6"/>
			</g>
			<g id="shape160-115" v:mID="160" v:groupContext="shape" transform="translate(354.331,-56.6929)">
				<title>工作表.160</title>
				<rect x="0" y="588.189" width="70.8661" height="7.08661" class="st6"/>
			</g>
			<g id="shape161-117" v:mID="161" v:groupContext="shape" transform="translate(425.197,-56.6929)">
				<title>工作表.161</title>
				<rect x="0" y="588.189" width="70.8661" height="7.08661" class="st6"/>
			</g>
			<g id="shape162-119" v:mID="162" v:groupContext="shape" transform="translate(496.063,-56.6929)">
				<title>工作表.162</title>
				<rect x="0" y="588.189" width="70.8661" height="7.08661" class="st6"/>
			</g>
			<g id="shape163-121" v:mID="163" v:groupContext="shape" transform="translate(566.929,-56.6929)">
				<title>工作表.163</title>
				<rect x="0" y="588.189" width="70.8661" height="7.08661" class="st6"/>
			</g>
			<g id="shape164-123" v:mID="164" v:groupContext="shape" transform="translate(637.795,-56.6929)">
				<title>工作表.164</title>
				<rect x="0" y="588.189" width="70.8661" height="7.08661" class="st6"/>
			</g>
			<g id="shape165-125" v:mID="165" v:groupContext="shape" transform="translate(70.8661,-49.6063)">
				<title>工作表.165</title>
				<rect x="0" y="588.189" width="70.8661" height="7.08661" class="st6"/>
			</g>
			<g id="shape166-127" v:mID="166" v:groupContext="shape" transform="translate(141.732,-49.6063)">
				<title>工作表.166</title>
				<rect x="0" y="588.189" width="70.8661" height="7.08661" class="st6"/>
			</g>
			<g id="shape167-129" v:mID="167" v:groupContext="shape" transform="translate(212.598,-49.6063)">
				<title>工作表.167</title>
				<rect x="0" y="588.189" width="70.8661" height="7.08661" class="st6"/>
			</g>
			<g id="shape168-131" v:mID="168" v:groupContext="shape" transform="translate(283.465,-49.6063)">
				<title>工作表.168</title>
				<rect x="0" y="588.189" width="70.8661" height="7.08661" class="st6"/>
			</g>
			<g id="shape169-133" v:mID="169" v:groupContext="shape" transform="translate(354.331,-49.6063)">
				<title>工作表.169</title>
				<rect x="0" y="588.189" width="70.8661" height="7.08661" class="st6"/>
			</g>
			<g id="shape170-135" v:mID="170" v:groupContext="shape" transform="translate(425.197,-49.6063)">
				<title>工作表.170</title>
				<rect x="0" y="588.189" width="70.8661" height="7.08661" class="st6"/>
			</g>
			<g id="shape171-137" v:mID="171" v:groupContext="shape" transform="translate(496.063,-49.6063)">
				<title>工作表.171</title>
				<rect x="0" y="588.189" width="70.8661" height="7.08661" class="st6"/>
			</g>
			<g id="shape172-139" v:mID="172" v:groupContext="shape" transform="translate(566.929,-49.6063)">
				<title>工作表.172</title>
				<rect x="0" y="588.189" width="70.8661" height="7.08661" class="st6"/>
			</g>
			<g id="shape173-141" v:mID="173" v:groupContext="shape" transform="translate(637.795,-49.6063)">
				<title>工作表.173</title>
				<rect x="0" y="588.189" width="70.8661" height="7.08661" class="st6"/>
			</g>
			<g id="shape174-143" v:mID="174" v:groupContext="shape" transform="translate(70.8661,-42.5197)">
				<title>工作表.174</title>
				<rect x="0" y="588.189" width="70.8661" height="7.08661" class="st6"/>
			</g>
			<g id="shape175-145" v:mID="175" v:groupContext="shape" transform="translate(141.732,-42.5197)">
				<title>工作表.175</title>
				<rect x="0" y="588.189" width="70.8661" height="7.08661" class="st6"/>
			</g>
			<g id="shape176-147" v:mID="176" v:groupContext="shape" transform="translate(212.598,-42.5197)">
				<title>工作表.176</title>
				<rect x="0" y="588.189" width="70.8661" height="7.08661" class="st6"/>
			</g>
			<g id="shape177-149" v:mID="177" v:groupContext="shape" transform="translate(283.465,-42.5197)">
				<title>工作表.177</title>
				<rect x="0" y="588.189" width="70.8661" height="7.08661" class="st6"/>
			</g>
			<g id="shape178-151" v:mID="178" v:groupContext="shape" transform="translate(354.331,-42.5197)">
				<title>工作表.178</title>
				<rect x="0" y="588.189" width="70.8661" height="7.08661" class="st6"/>
			</g>
			<g id="shape179-153" v:mID="179" v:groupContext="shape" transform="translate(425.197,-42.5197)">
				<title>工作表.179</title>
				<rect x="0" y="588.189" width="70.8661" height="7.08661" class="st6"/>
			</g>
			<g id="shape180-155" v:mID="180" v:groupContext="shape" transform="translate(496.063,-42.5197)">
				<title>工作表.180</title>
				<rect x="0" y="588.189" width="70.8661" height="7.08661" class="st6"/>
			</g>
			<g id="shape181-157" v:mID="181" v:groupContext="shape" transform="translate(566.929,-42.5197)">
				<title>工作表.181</title>
				<rect x="0" y="588.189" width="70.8661" height="7.08661" class="st6"/>
			</g>
			<g id="shape182-159" v:mID="182" v:groupContext="shape" transform="translate(637.795,-42.5197)">
				<title>工作表.182</title>
				<rect x="0" y="588.189" width="70.8661" height="7.08661" class="st6"/>
			</g>
			<g id="shape183-161" v:mID="183" v:groupContext="shape" transform="translate(70.8661,-35.4331)">
				<title>工作表.183</title>
				<rect x="0" y="588.189" width="70.8661" height="7.08661" class="st6"/>
			</g>
			<g id="shape184-163" v:mID="184" v:groupContext="shape" transform="translate(141.732,-35.4331)">
				<title>工作表.184</title>
				<rect x="0" y="588.189" width="70.8661" height="7.08661" class="st6"/>
			</g>
			<g id="shape185-165" v:mID="185" v:groupContext="shape" transform="translate(212.598,-35.4331)">
				<title>工作表.185</title>
				<rect x="0" y="588.189" width="70.8661" height="7.08661" class="st6"/>
			</g>
			<g id="shape186-167" v:mID="186" v:groupContext="shape" transform="translate(283.465,-35.4331)">
				<title>工作表.186</title>
				<rect x="0" y="588.189" width="70.8661" height="7.08661" class="st6"/>
			</g>
			<g id="shape187-169" v:mID="187" v:groupContext="shape" transform="translate(354.331,-35.4331)">
				<title>工作表.187</title>
				<rect x="0" y="588.189" width="70.8661" height="7.08661" class="st6"/>
			</g>
			<g id="shape188-171" v:mID="188" v:groupContext="shape" transform="translate(425.197,-35.4331)">
				<title>工作表.188</title>
				<rect x="0" y="588.189" width="70.8661" height="7.08661" class="st6"/>
			</g>
			<g id="shape189-173" v:mID="189" v:groupContext="shape" transform="translate(496.063,-35.4331)">
				<title>工作表.189</title>
				<rect x="0" y="588.189" width="70.8661" height="7.08661" class="st6"/>
			</g>
			<g id="shape190-175" v:mID="190" v:groupContext="shape" transform="translate(566.929,-35.4331)">
				<title>工作表.190</title>
				<rect x="0" y="588.189" width="70.8661" height="7.08661" class="st6"/>
			</g>
			<g id="shape191-177" v:mID="191" v:groupContext="shape" transform="translate(637.795,-35.4331)">
				<title>工作表.191</title>
				<rect x="0" y="588.189" width="70.8661" height="7.08661" class="st6"/>
			</g>
			<g id="shape192-179" v:mID="192" v:groupContext="shape" transform="translate(70.8661,-28.3465)">
				<title>工作表.192</title>
				<rect x="0" y="588.189" width="70.8661" height="7.08661" class="st6"/>
			</g>
			<g id="shape193-181" v:mID="193" v:groupContext="shape" transform="translate(141.732,-28.3465)">
				<title>工作表.193</title>
				<rect x="0" y="588.189" width="70.8661" height="7.08661" class="st6"/>
			</g>
			<g id="shape194-183" v:mID="194" v:groupContext="shape" transform="translate(212.598,-28.3465)">
				<title>工作表.194</title>
				<rect x="0" y="588.189" width="70.8661" height="7.08661" class="st6"/>
			</g>
			<g id="shape195-185" v:mID="195" v:groupContext="shape" transform="translate(283.465,-28.3465)">
				<title>工作表.195</title>
				<rect x="0" y="588.189" width="70.8661" height="7.08661" class="st6"/>
			</g>
			<g id="shape196-187" v:mID="196" v:groupContext="shape" transform="translate(354.331,-28.3465)">
				<title>工作表.196</title>
				<rect x="0" y="588.189" width="70.8661" height="7.08661" class="st6"/>
			</g>
			<g id="shape197-189" v:mID="197" v:groupContext="shape" transform="translate(425.197,-28.3465)">
				<title>工作表.197</title>
				<rect x="0" y="588.189" width="70.8661" height="7.08661" class="st6"/>
			</g>
			<g id="shape198-191" v:mID="198" v:groupContext="shape" transform="translate(496.063,-28.3465)">
				<title>工作表.198</title>
				<rect x="0" y="588.189" width="70.8661" height="7.08661" class="st6"/>
			</g>
			<g id="shape199-193" v:mID="199" v:groupContext="shape" transform="translate(566.929,-28.3465)">
				<title>工作表.199</title>
				<rect x="0" y="588.189" width="70.8661" height="7.08661" class="st6"/>
			</g>
			<g id="shape200-195" v:mID="200" v:groupContext="shape" transform="translate(637.795,-28.3465)">
				<title>工作表.200</title>
				<rect x="0" y="588.189" width="70.8661" height="7.08661" class="st6"/>
			</g>
			<g id="shape201-197" v:mID="201" v:groupContext="shape" transform="translate(70.8661,-21.2598)">
				<title>工作表.201</title>
				<rect x="0" y="588.189" width="70.8661" height="7.08661" class="st6"/>
			</g>
			<g id="shape202-199" v:mID="202" v:groupContext="shape" transform="translate(141.732,-21.2598)">
				<title>工作表.202</title>
				<rect x="0" y="588.189" width="70.8661" height="7.08661" class="st6"/>
			</g>
			<g id="shape203-201" v:mID="203" v:groupContext="shape" transform="translate(212.598,-21.2598)">
				<title>工作表.203</title>
				<rect x="0" y="588.189" width="70.8661" height="7.08661" class="st6"/>
			</g>
			<g id="shape204-203" v:mID="204" v:groupContext="shape" transform="translate(283.465,-21.2598)">
				<title>工作表.204</title>
				<rect x="0" y="588.189" width="70.8661" height="7.08661" class="st6"/>
			</g>
			<g id="shape205-205" v:mID="205" v:groupContext="shape" transform="translate(354.331,-21.2598)">
				<title>工作表.205</title>
				<rect x="0" y="588.189" width="70.8661" height="7.08661" class="st6"/>
			</g>
			<g id="shape206-207" v:mID="206" v:groupContext="shape" transform="translate(425.197,-21.2598)">
				<title>工作表.206</title>
				<rect x="0" y="588.189" width="70.8661" height="7.08661" class="st6"/>
			</g>
			<g id="shape207-209" v:mID="207" v:groupContext="shape" transform="translate(496.063,-21.2598)">
				<title>工作表.207</title>
				<rect x="0" y="588.189" width="70.8661" height="7.08661" class="st6"/>
			</g>
			<g id="shape208-211" v:mID="208" v:groupContext="shape" transform="translate(566.929,-21.2598)">
				<title>工作表.208</title>
				<rect x="0" y="588.189" width="70.8661" height="7.08661" class="st6"/>
			</g>
			<g id="shape209-213" v:mID="209" v:groupContext="shape" transform="translate(637.795,-21.2598)">
				<title>工作表.209</title>
				<rect x="0" y="588.189" width="70.8661" height="7.08661" class="st6"/>
			</g>
			<g id="shape210-215" v:mID="210" v:groupContext="shape" transform="translate(70.8661,-14.1732)">
				<title>工作表.210</title>
				<rect x="0" y="588.189" width="70.8661" height="7.08661" class="st6"/>
			</g>
			<g id="shape211-217" v:mID="211" v:groupContext="shape" transform="translate(141.732,-14.1732)">
				<title>工作表.211</title>
				<rect x="0" y="588.189" width="70.8661" height="7.08661" class="st6"/>
			</g>
			<g id="shape212-219" v:mID="212" v:groupContext="shape" transform="translate(212.598,-14.1732)">
				<title>工作表.212</title>
				<rect x="0" y="588.189" width="70.8661" height="7.08661" class="st6"/>
			</g>
			<g id="shape213-221" v:mID="213" v:groupContext="shape" transform="translate(283.465,-14.1732)">
				<title>工作表.213</title>
				<rect x="0" y="588.189" width="70.8661" height="7.08661" class="st6"/>
			</g>
			<g id="shape214-223" v:mID="214" v:groupContext="shape" transform="translate(354.331,-14.1732)">
				<title>工作表.214</title>
				<rect x="0" y="588.189" width="70.8661" height="7.08661" class="st6"/>
			</g>
			<g id="shape215-225" v:mID="215" v:groupContext="shape" transform="translate(425.197,-14.1732)">
				<title>工作表.215</title>
				<rect x="0" y="588.189" width="70.8661" height="7.08661" class="st6"/>
			</g>
			<g id="shape216-227" v:mID="216" v:groupContext="shape" transform="translate(496.063,-14.1732)">
				<title>工作表.216</title>
				<rect x="0" y="588.189" width="70.8661" height="7.08661" class="st6"/>
			</g>
			<g id="shape217-229" v:mID="217" v:groupContext="shape" transform="translate(566.929,-14.1732)">
				<title>工作表.217</title>
				<rect x="0" y="588.189" width="70.8661" height="7.08661" class="st6"/>
			</g>
			<g id="shape218-231" v:mID="218" v:groupContext="shape" transform="translate(637.795,-14.1732)">
				<title>工作表.218</title>
				<rect x="0" y="588.189" width="70.8661" height="7.08661" class="st6"/>
			</g>
			<g id="shape219-233" v:mID="219" v:groupContext="shape" transform="translate(70.8661,-7.08661)">
				<title>工作表.219</title>
				<rect x="0" y="588.189" width="70.8661" height="7.08661" class="st6"/>
			</g>
			<g id="shape220-235" v:mID="220" v:groupContext="shape" transform="translate(141.732,-7.08661)">
				<title>工作表.220</title>
				<rect x="0" y="588.189" width="70.8661" height="7.08661" class="st6"/>
			</g>
			<g id="shape221-237" v:mID="221" v:groupContext="shape" transform="translate(212.598,-7.08661)">
				<title>工作表.221</title>
				<rect x="0" y="588.189" width="70.8661" height="7.08661" class="st6"/>
			</g>
			<g id="shape222-239" v:mID="222" v:groupContext="shape" transform="translate(283.465,-7.08661)">
				<title>工作表.222</title>
				<rect x="0" y="588.189" width="70.8661" height="7.08661" class="st6"/>
			</g>
			<g id="shape223-241" v:mID="223" v:groupContext="shape" transform="translate(354.331,-7.08661)">
				<title>工作表.223</title>
				<rect x="0" y="588.189" width="70.8661" height="7.08661" class="st6"/>
			</g>
			<g id="shape224-243" v:mID="224" v:groupContext="shape" transform="translate(425.197,-7.08661)">
				<title>工作表.224</title>
				<rect x="0" y="588.189" width="70.8661" height="7.08661" class="st6"/>
			</g>
			<g id="shape225-245" v:mID="225" v:groupContext="shape" transform="translate(496.063,-7.08661)">
				<title>工作表.225</title>
				<rect x="0" y="588.189" width="70.8661" height="7.08661" class="st6"/>
			</g>
			<g id="shape226-247" v:mID="226" v:groupContext="shape" transform="translate(566.929,-7.08661)">
				<title>工作表.226</title>
				<rect x="0" y="588.189" width="70.8661" height="7.08661" class="st6"/>
			</g>
			<g id="shape227-249" v:mID="227" v:groupContext="shape" transform="translate(637.795,-7.08661)">
				<title>工作表.227</title>
				<rect x="0" y="588.189" width="70.8661" height="7.08661" class="st6"/>
			</g>
			<g id="shape228-251" v:mID="228" v:groupContext="shape" transform="translate(70.8661,0)">
				<title>工作表.228</title>
				<rect x="0" y="588.189" width="70.8661" height="7.08661" class="st6"/>
			</g>
			<g id="shape229-253" v:mID="229" v:groupContext="shape" transform="translate(141.732,0)">
				<title>工作表.229</title>
				<rect x="0" y="588.189" width="70.8661" height="7.08661" class="st6"/>
			</g>
			<g id="shape230-255" v:mID="230" v:groupContext="shape" transform="translate(212.598,0)">
				<title>工作表.230</title>
				<rect x="0" y="588.189" width="70.8661" height="7.08661" class="st6"/>
			</g>
			<g id="shape231-257" v:mID="231" v:groupContext="shape" transform="translate(283.465,0)">
				<title>工作表.231</title>
				<rect x="0" y="588.189" width="70.8661" height="7.08661" class="st6"/>
			</g>
			<g id="shape232-259" v:mID="232" v:groupContext="shape" transform="translate(354.331,0)">
				<title>工作表.232</title>
				<rect x="0" y="588.189" width="70.8661" height="7.08661" class="st6"/>
			</g>
			<g id="shape233-261" v:mID="233" v:groupContext="shape" transform="translate(425.197,0)">
				<title>工作表.233</title>
				<rect x="0" y="588.189" width="70.8661" height="7.08661" class="st6"/>
			</g>
			<g id="shape234-263" v:mID="234" v:groupContext="shape" transform="translate(496.063,0)">
				<title>工作表.234</title>
				<rect x="0" y="588.189" width="70.8661" height="7.08661" class="st6"/>
			</g>
			<g id="shape235-265" v:mID="235" v:groupContext="shape" transform="translate(566.929,0)">
				<title>工作表.235</title>
				<rect x="0" y="588.189" width="70.8661" height="7.08661" class="st6"/>
			</g>
			<g id="shape236-267" v:mID="236" v:groupContext="shape" transform="translate(637.795,0)">
				<title>工作表.236</title>
				<rect x="0" y="588.189" width="70.8661" height="7.08661" class="st6"/>
			</g>
		</g>
		<g id="shape238-269" v:mID="238" v:groupContext="shape" transform="translate(18,-64.3465)">
			<title>工作表.238</title>
			<desc>Index:</desc>
			<v:textBlock v:margins="rect(4,4,4,4)" v:tabSpace="42.5197"/>
			<v:textRect cx="26.4331" cy="588.189" width="52.87" height="14.1732"/>
			<rect x="0" y="581.102" width="52.8661" height="14.1732" class="st7"/>
			<text x="8.43" y="591.79" class="st8" v:langID="1033"><v:paragraph v:horizAlign="1"/><v:tabList/>Index:</text>		</g>
		<g id="shape240-272" v:mID="240" v:groupContext="shape" transform="translate(70.8661,-64.3465)">
			<title>工作表.240</title>
			<desc>0</desc>
			<v:textBlock v:margins="rect(4,4,4,4)" v:tabSpace="42.5197"/>
			<v:textRect cx="35.4331" cy="588.189" width="70.87" height="14.1732"/>
			<rect x="0" y="581.102" width="70.8661" height="14.1732" class="st7"/>
			<text x="32.43" y="591.79" class="st8" v:langID="1033"><v:paragraph v:horizAlign="1"/><v:tabList/>0</text>		</g>
		<g id="shape242-275" v:mID="242" v:groupContext="shape" transform="translate(141.732,-64.3465)">
			<title>工作表.242</title>
			<desc>1</desc>
			<v:textBlock v:margins="rect(4,4,4,4)" v:tabSpace="42.5197"/>
			<v:textRect cx="35.4331" cy="588.189" width="70.87" height="14.1732"/>
			<rect x="0" y="581.102" width="70.8661" height="14.1732" class="st7"/>
			<text x="32.43" y="591.79" class="st8" v:langID="1033"><v:paragraph v:horizAlign="1"/><v:tabList/>1</text>		</g>
		<g id="shape243-278" v:mID="243" v:groupContext="shape" transform="translate(212.598,-64.3465)">
			<title>工作表.243</title>
			<desc>2</desc>
			<v:textBlock v:margins="rect(4,4,4,4)" v:tabSpace="42.5197"/>
			<v:textRect cx="35.4331" cy="588.189" width="70.87" height="14.1732"/>
			<rect x="0" y="581.102" width="70.8661" height="14.1732" class="st7"/>
			<text x="32.43" y="591.79" class="st8" v:langID="1033"><v:paragraph v:horizAlign="1"/><v:tabList/>2</text>		</g>
		<g id="shape244-281" v:mID="244" v:groupContext="shape" transform="translate(283.465,-64.3465)">
			<title>工作表.244</title>
			<desc>3</desc>
			<v:textBlock v:margins="rect(4,4,4,4)" v:tabSpace="42.5197"/>
			<v:textRect cx="35.4331" cy="588.189" width="70.87" height="14.1732"/>
			<rect x="0" y="581.102" width="70.8661" height="14.1732" class="st7"/>
			<text x="32.43" y="591.79" class="st8" v:langID="1033"><v:paragraph v:horizAlign="1"/><v:tabList/>3</text>		</g>
		<g id="shape245-284" v:mID="245" v:groupContext="shape" transform="translate(354.331,-64.3465)">
			<title>工作表.245</title>
			<desc>4</desc>
			<v:textBlock v:margins="rect(4,4,4,4)" v:tabSpace="42.5197"/>
			<v:textRect cx="35.4331" cy="588.189" width="70.87" height="14.1732"/>
			<rect x="0" y="581.102" width="70.8661" height="14.1732" class="st7"/>
			<text x="32.43" y="591.79" class="st8" v:langID="1033"><v:paragraph v:horizAlign="1"/><v:tabList/>4</text>		</g>
		<g id="shape246-287" v:mID="246" v:groupContext="shape" transform="translate(425.197,-64.3465)">
			<title>工作表.246</title>
			<desc>5</desc>
			<v:textBlock v:margins="rect(4,4,4,4)" v:tabSpace="42.5197"/>
			<v:textRect cx="35.4331" cy="588.189" width="70.87" height="14.1732"/>
			<rect x="0" y="581.102" width="70.8661" height="14.1732" class="st7"/>
			<text x="32.43" y="591.79" class="st8" v:langID="1033"><v:paragraph v:horizAlign="1"/><v:tabList/>5</text>		</g>
		<g id="shape247-290" v:mID="247" v:groupContext="shape" transform="translate(496.063,-64.3465)">
			<title>工作表.247</title>
			<desc>6</desc>
			<v:textBlock v:margins="rect(4,4,4,4)" v:tabSpace="42.5197"/>
			<v:textRect cx="35.4331" cy="588.189" width="70.87" height="14.1732"/>
			<rect x="0" y="581.102" width="70.8661" height="14.1732" class="st7"/>
			<text x="32.43" y="591.79" class="st8" v:langID="1033"><v:paragraph v:horizAlign="1"/><v:tabList/>6</text>		</g>
		<g id="shape248-293" v:mID="248" v:groupContext="shape" transform="translate(566.929,-64.3465)">
			<title>工作表.248</title>
			<desc>7</desc>
			<v:textBlock v:margins="rect(4,4,4,4)" v:tabSpace="42.5197"/>
			<v:textRect cx="35.4331" cy="588.189" width="70.87" height="14.1732"/>
			<rect x="0" y="581.102" width="70.8661" height="14.1732" class="st7"/>
			<text x="32.43" y="591.79" class="st8" v:langID="1033"><v:paragraph v:horizAlign="1"/><v:tabList/>7</text>		</g>
		<g id="shape249-296" v:mID="249" v:groupContext="shape" transform="translate(637.795,-64.3465)">
			<title>工作表.249</title>
			<desc>8</desc>
			<v:textBlock v:margins="rect(4,4,4,4)" v:tabSpace="42.5197"/>
			<v:textRect cx="35.4331" cy="588.189" width="70.87" height="14.1732"/>
			<rect x="0" y="581.102" width="70.8661" height="14.1732" class="st7"/>
			<text x="32.43" y="591.79" class="st8" v:langID="1033"><v:paragraph v:horizAlign="1"/><v:tabList/>8</text>		</g>
		<g id="shape250-299" v:mID="250" v:groupContext="shape" transform="translate(708.661,-64.3465)">
			<title>工作表.250</title>
			<desc>9</desc>
			<v:textBlock v:margins="rect(4,4,4,4)" v:tabSpace="42.5197"/>
			<v:textRect cx="35.4331" cy="588.189" width="70.87" height="14.1732"/>
			<rect x="0" y="581.102" width="70.8661" height="14.1732" class="st7"/>
			<text x="32.43" y="591.79" class="st8" v:langID="1033"><v:paragraph v:horizAlign="1"/><v:tabList/>9</text>		</g>
	</g>
</svg>
